<svg width="256" height="145" viewBox="0 0 256 145" fill="none" xmlns="http://www.w3.org/2000/svg">
<path d="M0 -4H256V95C256 108.261 250.732 120.979 241.355 130.355C231.979 139.732 219.261 145 206 145H50C36.7392 145 24.0215 139.732 14.6447 130.355C5.26784 120.979 0 108.261 0 95L0 -4Z" fill="#E0B973"/>
<path d="M66.4678 84.292C67.4395 84.292 68.2402 84.4092 68.8701 84.6436C69.5049 84.8779 69.9761 85.2319 70.2837 85.7056C70.5913 86.1792 70.7451 86.7773 70.7451 87.5C70.7451 87.9883 70.6523 88.4155 70.4668 88.7817C70.2812 89.1479 70.0371 89.458 69.7344 89.7119C69.4316 89.9658 69.1045 90.1733 68.7529 90.3345L71.9023 95H69.3828L66.8267 90.8911H65.6182V95H63.3477V84.292H66.4678ZM66.3066 86.1523H65.6182V89.0454H66.3506C67.1025 89.0454 67.6396 88.9209 67.9619 88.6719C68.2891 88.418 68.4526 88.0469 68.4526 87.5586C68.4526 87.0508 68.2769 86.6895 67.9253 86.4746C67.5786 86.2598 67.0391 86.1523 66.3066 86.1523ZM85.4507 86.6577C86.2075 86.6577 86.8594 86.8042 87.4062 87.0972C87.9531 87.3853 88.3755 87.8052 88.6733 88.3569C88.9712 88.9087 89.1201 89.5825 89.1201 90.3784V91.4624H83.8394C83.8638 92.0923 84.0518 92.5879 84.4033 92.9492C84.7598 93.3057 85.2529 93.4839 85.8828 93.4839C86.4053 93.4839 86.8838 93.4302 87.3184 93.3228C87.7529 93.2153 88.1997 93.0542 88.6587 92.8394V94.5679C88.2534 94.7681 87.8286 94.9146 87.3843 95.0073C86.9448 95.1001 86.4102 95.1465 85.7803 95.1465C84.96 95.1465 84.2324 94.9951 83.5977 94.6924C82.9678 94.3896 82.4722 93.9282 82.1108 93.3081C81.7544 92.688 81.5762 91.9067 81.5762 90.9644C81.5762 90.0073 81.7373 89.2114 82.0596 88.5767C82.3867 87.937 82.8408 87.4585 83.4219 87.1411C84.0029 86.8188 84.6792 86.6577 85.4507 86.6577ZM85.4653 88.2471C85.0308 88.2471 84.6694 88.3862 84.3813 88.6646C84.0981 88.9429 83.9346 89.3799 83.8906 89.9756H87.0254C87.0205 89.6436 86.9595 89.3481 86.8423 89.0894C86.73 88.8306 86.5591 88.6255 86.3296 88.4741C86.105 88.3228 85.8169 88.2471 85.4653 88.2471ZM103.262 95.1465C102.451 95.1465 101.76 95 101.189 94.707C100.618 94.4092 100.183 93.9502 99.8853 93.3301C99.5874 92.71 99.4385 91.9165 99.4385 90.9497C99.4385 89.9487 99.6069 89.1333 99.9438 88.5034C100.286 87.8687 100.757 87.4023 101.357 87.1045C101.963 86.8066 102.664 86.6577 103.459 86.6577C104.026 86.6577 104.514 86.7139 104.924 86.8262C105.339 86.9336 105.701 87.063 106.008 87.2144L105.349 88.9429C104.998 88.8013 104.67 88.6865 104.368 88.5986C104.065 88.5059 103.762 88.4595 103.459 88.4595C103.069 88.4595 102.744 88.5522 102.485 88.7378C102.227 88.9185 102.034 89.1919 101.907 89.5581C101.78 89.9243 101.716 90.3833 101.716 90.9351C101.716 91.4771 101.785 91.9263 101.921 92.2827C102.058 92.6392 102.256 92.9053 102.515 93.0811C102.773 93.252 103.088 93.3374 103.459 93.3374C103.923 93.3374 104.336 93.2764 104.697 93.1543C105.059 93.0273 105.41 92.8516 105.752 92.627V94.5386C105.41 94.7534 105.051 94.9072 104.675 95C104.304 95.0977 103.833 95.1465 103.262 95.1465ZM124.098 90.8911C124.098 91.5747 124.005 92.1802 123.819 92.7075C123.639 93.2349 123.373 93.6816 123.021 94.0479C122.674 94.4092 122.254 94.6826 121.761 94.8682C121.273 95.0537 120.721 95.1465 120.106 95.1465C119.53 95.1465 119 95.0537 118.517 94.8682C118.038 94.6826 117.621 94.4092 117.264 94.0479C116.913 93.6816 116.639 93.2349 116.444 92.7075C116.253 92.1802 116.158 91.5747 116.158 90.8911C116.158 89.9829 116.319 89.2139 116.642 88.584C116.964 87.9541 117.423 87.4756 118.019 87.1484C118.614 86.8213 119.325 86.6577 120.15 86.6577C120.917 86.6577 121.595 86.8213 122.186 87.1484C122.782 87.4756 123.248 87.9541 123.585 88.584C123.927 89.2139 124.098 89.9829 124.098 90.8911ZM118.436 90.8911C118.436 91.4282 118.495 91.8799 118.612 92.2461C118.729 92.6123 118.912 92.8882 119.161 93.0737C119.41 93.2593 119.735 93.3521 120.135 93.3521C120.531 93.3521 120.851 93.2593 121.095 93.0737C121.344 92.8882 121.524 92.6123 121.637 92.2461C121.754 91.8799 121.812 91.4282 121.812 90.8911C121.812 90.3491 121.754 89.8999 121.637 89.5435C121.524 89.1821 121.344 88.9111 121.095 88.7305C120.846 88.5498 120.521 88.4595 120.121 88.4595C119.53 88.4595 119.1 88.6621 118.832 89.0674C118.568 89.4727 118.436 90.0806 118.436 90.8911ZM136.892 95L133.771 86.8115H136.108L137.69 91.4771C137.778 91.7505 137.846 92.0386 137.895 92.3413C137.949 92.644 137.985 92.915 138.005 93.1543H138.063C138.078 92.8955 138.112 92.6196 138.166 92.3267C138.225 92.0337 138.3 91.7505 138.393 91.4771L139.968 86.8115H142.304L139.184 95H136.892ZM155.86 86.6577C156.617 86.6577 157.269 86.8042 157.815 87.0972C158.362 87.3853 158.785 87.8052 159.083 88.3569C159.38 88.9087 159.529 89.5825 159.529 90.3784V91.4624H154.249C154.273 92.0923 154.461 92.5879 154.812 92.9492C155.169 93.3057 155.662 93.4839 156.292 93.4839C156.814 93.4839 157.293 93.4302 157.728 93.3228C158.162 93.2153 158.609 93.0542 159.068 92.8394V94.5679C158.663 94.7681 158.238 94.9146 157.793 95.0073C157.354 95.1001 156.819 95.1465 156.189 95.1465C155.369 95.1465 154.642 94.9951 154.007 94.6924C153.377 94.3896 152.881 93.9282 152.52 93.3081C152.164 92.688 151.985 91.9067 151.985 90.9644C151.985 90.0073 152.146 89.2114 152.469 88.5767C152.796 87.937 153.25 87.4585 153.831 87.1411C154.412 86.8188 155.088 86.6577 155.86 86.6577ZM155.875 88.2471C155.44 88.2471 155.079 88.3862 154.791 88.6646C154.507 88.9429 154.344 89.3799 154.3 89.9756H157.435C157.43 89.6436 157.369 89.3481 157.251 89.0894C157.139 88.8306 156.968 88.6255 156.739 88.4741C156.514 88.3228 156.226 88.2471 155.875 88.2471ZM174.916 86.6577C175.028 86.6577 175.158 86.665 175.304 86.6797C175.456 86.6895 175.578 86.7041 175.67 86.7236L175.502 88.8184C175.429 88.7939 175.324 88.7769 175.187 88.7671C175.055 88.7524 174.94 88.7451 174.843 88.7451C174.555 88.7451 174.274 88.7817 174 88.855C173.732 88.9282 173.49 89.0479 173.275 89.2139C173.061 89.375 172.89 89.5898 172.763 89.8584C172.641 90.1221 172.58 90.4468 172.58 90.8325V95H170.346V86.8115H172.038L172.367 88.1885H172.477C172.638 87.9102 172.838 87.6562 173.078 87.4268C173.322 87.1924 173.598 87.0068 173.905 86.8701C174.218 86.7285 174.555 86.6577 174.916 86.6577ZM184.985 86.8115H187.432L188.977 91.4185C189.026 91.5649 189.067 91.7139 189.102 91.8652C189.136 92.0166 189.165 92.1729 189.189 92.334C189.214 92.4951 189.233 92.6636 189.248 92.8394H189.292C189.321 92.5757 189.36 92.3291 189.409 92.0996C189.463 91.8701 189.529 91.6431 189.607 91.4185L191.123 86.8115H193.518L190.054 96.0474C189.844 96.6138 189.57 97.085 189.233 97.4609C188.896 97.8418 188.508 98.1274 188.069 98.3179C187.634 98.5083 187.156 98.6035 186.633 98.6035C186.379 98.6035 186.16 98.5889 185.974 98.5596C185.789 98.5352 185.63 98.5083 185.498 98.479V96.7065C185.601 96.731 185.73 96.7529 185.886 96.7725C186.042 96.792 186.206 96.8018 186.377 96.8018C186.689 96.8018 186.958 96.7358 187.183 96.604C187.407 96.4722 187.595 96.2939 187.747 96.0693C187.898 95.8496 188.018 95.6079 188.105 95.3442L188.237 94.9414L184.985 86.8115Z" fill="#14274A"/>
<path d="M60.9922 68H54.957V55.6758H43.6484V68H37.5938V39.4453H43.6484V50.6367H54.957V39.4453H60.9922V68ZM93.5938 57.043C93.5938 58.8659 93.3464 60.4805 92.8516 61.8867C92.3698 63.293 91.6602 64.4844 90.7227 65.4609C89.7982 66.4245 88.6784 67.1536 87.3633 67.6484C86.0612 68.1432 84.5898 68.3906 82.9492 68.3906C81.4128 68.3906 80 68.1432 78.7109 67.6484C77.4349 67.1536 76.3216 66.4245 75.3711 65.4609C74.4336 64.4844 73.7044 63.293 73.1836 61.8867C72.6758 60.4805 72.4219 58.8659 72.4219 57.043C72.4219 54.6211 72.8516 52.5703 73.7109 50.8906C74.5703 49.2109 75.7943 47.9349 77.3828 47.0625C78.9714 46.1901 80.8659 45.7539 83.0664 45.7539C85.1107 45.7539 86.9206 46.1901 88.4961 47.0625C90.0846 47.9349 91.3281 49.2109 92.2266 50.8906C93.138 52.5703 93.5938 54.6211 93.5938 57.043ZM78.4961 57.043C78.4961 58.4753 78.6523 59.6797 78.9648 60.6562C79.2773 61.6328 79.7656 62.3685 80.4297 62.8633C81.0938 63.3581 81.9596 63.6055 83.0273 63.6055C84.082 63.6055 84.9349 63.3581 85.5859 62.8633C86.25 62.3685 86.7318 61.6328 87.0312 60.6562C87.3438 59.6797 87.5 58.4753 87.5 57.043C87.5 55.5977 87.3438 54.3997 87.0312 53.4492C86.7318 52.4857 86.25 51.763 85.5859 51.2812C84.9219 50.7995 84.056 50.5586 82.9883 50.5586C81.4128 50.5586 80.2669 51.099 79.5508 52.1797C78.8477 53.2604 78.4961 54.8815 78.4961 57.043ZM124.555 46.1641V68H119.984L119.184 65.207H118.871C118.402 65.9492 117.816 66.5547 117.113 67.0234C116.41 67.4922 115.635 67.8372 114.789 68.0586C113.943 68.2799 113.064 68.3906 112.152 68.3906C110.59 68.3906 109.229 68.1172 108.07 67.5703C106.911 67.0104 106.007 66.1445 105.355 64.9727C104.717 63.8008 104.398 62.2773 104.398 60.4023V46.1641H110.355V58.918C110.355 60.4805 110.635 61.6589 111.195 62.4531C111.755 63.2474 112.647 63.6445 113.871 63.6445C115.082 63.6445 116.033 63.3711 116.723 62.8242C117.413 62.2643 117.895 61.4505 118.168 60.3828C118.454 59.3021 118.598 57.987 118.598 56.4375V46.1641H124.555ZM152.039 61.5156C152.039 63 151.688 64.2565 150.984 65.2852C150.294 66.3008 149.259 67.0755 147.879 67.6094C146.499 68.1302 144.78 68.3906 142.723 68.3906C141.199 68.3906 139.891 68.293 138.797 68.0977C137.716 67.9023 136.622 67.5768 135.516 67.1211V62.1992C136.701 62.7331 137.97 63.1758 139.324 63.5273C140.691 63.8659 141.889 64.0352 142.918 64.0352C144.077 64.0352 144.904 63.8659 145.398 63.5273C145.906 63.1758 146.16 62.7201 146.16 62.1602C146.16 61.7956 146.056 61.4701 145.848 61.1836C145.652 60.8841 145.223 60.5521 144.559 60.1875C143.895 59.8099 142.853 59.3216 141.434 58.7227C140.066 58.1497 138.94 57.5703 138.055 56.9844C137.182 56.3984 136.531 55.7083 136.102 54.9141C135.685 54.1068 135.477 53.0846 135.477 51.8477C135.477 49.8294 136.258 48.3125 137.82 47.2969C139.396 46.2682 141.499 45.7539 144.129 45.7539C145.483 45.7539 146.772 45.8906 147.996 46.1641C149.233 46.4375 150.503 46.8737 151.805 47.4727L150.008 51.7695C148.927 51.3008 147.905 50.9167 146.941 50.6172C145.991 50.3177 145.021 50.168 144.031 50.168C143.159 50.168 142.501 50.2852 142.059 50.5195C141.616 50.7539 141.395 51.112 141.395 51.5938C141.395 51.9453 141.505 52.2578 141.727 52.5312C141.961 52.8047 142.404 53.1107 143.055 53.4492C143.719 53.7747 144.689 54.1979 145.965 54.7188C147.202 55.2266 148.276 55.7604 149.188 56.3203C150.099 56.8672 150.802 57.5508 151.297 58.3711C151.792 59.1784 152.039 60.2266 152.039 61.5156ZM171.887 63.6445C172.538 63.6445 173.169 63.5794 173.781 63.4492C174.406 63.319 175.025 63.1562 175.637 62.9609V67.3945C174.999 67.681 174.204 67.9154 173.254 68.0977C172.316 68.293 171.288 68.3906 170.168 68.3906C168.866 68.3906 167.694 68.1823 166.652 67.7656C165.624 67.3359 164.81 66.6003 164.211 65.5586C163.625 64.5039 163.332 63.0391 163.332 61.1641V50.6367H160.48V48.1172L163.762 46.125L165.48 41.5156H169.289V46.1641H175.402V50.6367H169.289V61.1641C169.289 61.9974 169.523 62.6224 169.992 63.0391C170.474 63.4427 171.105 63.6445 171.887 63.6445ZM205.914 57.043C205.914 58.8659 205.667 60.4805 205.172 61.8867C204.69 63.293 203.98 64.4844 203.043 65.4609C202.118 66.4245 200.999 67.1536 199.684 67.6484C198.382 68.1432 196.91 68.3906 195.27 68.3906C193.733 68.3906 192.32 68.1432 191.031 67.6484C189.755 67.1536 188.642 66.4245 187.691 65.4609C186.754 64.4844 186.025 63.293 185.504 61.8867C184.996 60.4805 184.742 58.8659 184.742 57.043C184.742 54.6211 185.172 52.5703 186.031 50.8906C186.891 49.2109 188.115 47.9349 189.703 47.0625C191.292 46.1901 193.186 45.7539 195.387 45.7539C197.431 45.7539 199.241 46.1901 200.816 47.0625C202.405 47.9349 203.648 49.2109 204.547 50.8906C205.458 52.5703 205.914 54.6211 205.914 57.043ZM190.816 57.043C190.816 58.4753 190.973 59.6797 191.285 60.6562C191.598 61.6328 192.086 62.3685 192.75 62.8633C193.414 63.3581 194.28 63.6055 195.348 63.6055C196.402 63.6055 197.255 63.3581 197.906 62.8633C198.57 62.3685 199.052 61.6328 199.352 60.6562C199.664 59.6797 199.82 58.4753 199.82 57.043C199.82 55.5977 199.664 54.3997 199.352 53.4492C199.052 52.4857 198.57 51.763 197.906 51.2812C197.242 50.7995 196.376 50.5586 195.309 50.5586C193.733 50.5586 192.587 51.099 191.871 52.1797C191.168 53.2604 190.816 54.8815 190.816 57.043ZM229.238 45.7539C231.569 45.7539 233.444 46.3919 234.863 47.668C236.283 48.931 236.992 50.9622 236.992 53.7617V68H231.035V55.2461C231.035 53.6836 230.749 52.5052 230.176 51.7109C229.616 50.9167 228.73 50.5195 227.52 50.5195C225.697 50.5195 224.453 51.138 223.789 52.375C223.125 53.612 222.793 55.3958 222.793 57.7266V68H216.836V46.1641H221.387L222.188 48.957H222.52C222.988 48.2018 223.568 47.5898 224.258 47.1211C224.961 46.6523 225.736 46.3073 226.582 46.0859C227.441 45.8646 228.327 45.7539 229.238 45.7539Z" fill="#14274A"/>
</svg>
