<svg width="419" height="140" viewBox="0 0 419 140" fill="none" xmlns="http://www.w3.org/2000/svg">
<mask id="path-1-outside-1_20_36" maskUnits="userSpaceOnUse" x="0" y="0" width="416" height="140" fill="black">
<rect fill="white" width="416" height="140"/>
<path d="M0 2C0 1.44772 0.447715 1 1 1H415C415.552 1 416 1.44772 416 2V138C416 138.552 415.552 139 415 139H1C0.447719 139 0 138.552 0 138V2Z"/>
</mask>
<path d="M0 2C0 0.895431 0.895431 0 2 0H414C415.105 0 416 0.895431 416 2C416 2 415.552 2 415 2H1C0.447715 2 0 2 0 2ZM416 138C416 139.105 415.105 140 414 140H2C0.895431 140 0 139.105 0 138C0 138 0.447715 138 1 138H415C415.552 138 416 138 416 138ZM0 139V1V139ZM416 1V139V1Z" fill="black" mask="url(#path-1-outside-1_20_36)"/>
<path d="M0 2C0 0.895431 0.895431 0 2 0H414C415.105 0 416 0.895431 416 2C416 2 415.552 2 415 2H1C0.447715 2 0 2 0 2ZM416 138C416 139.105 415.105 140 414 140H2C0.895431 140 0 139.105 0 138C0 138 0.447715 138 1 138H415C415.552 138 416 138 416 138ZM0 139V1V139ZM416 1V139V1Z" fill="black" mask="url(#path-1-outside-1_20_36)"/>
<path d="M109 59V7.312C110.349 7.05166 111.745 6.815 113.189 6.602C114.656 6.389 116.206 6.22333 117.839 6.105C119.472 5.963 121.2 5.892 123.022 5.892C129.933 5.892 135.08 7.15816 138.465 9.6905C141.849 12.1992 143.541 16.1278 143.541 21.4765C143.541 24.9792 142.713 27.902 141.056 30.245C139.423 32.588 137.009 34.3512 133.814 35.5345C130.619 36.7178 126.667 37.3095 121.957 37.3095C120.513 37.3095 119.235 37.2858 118.123 37.2385C117.011 37.1675 115.863 37.0847 114.68 36.99V59H109ZM141.021 59L122.49 34.292H128.915L147.588 59H141.021ZM121.993 32.6945C127.625 32.6945 131.708 31.7833 134.24 29.961C136.772 28.1387 138.039 25.3342 138.039 21.5475C138.039 18.9205 137.53 16.8023 136.512 15.193C135.494 13.56 133.897 12.3767 131.72 11.643C129.566 10.8857 126.773 10.507 123.342 10.507C121.567 10.507 120.016 10.578 118.691 10.72C117.366 10.8383 116.029 11.0158 114.68 11.2525V32.3395C115.603 32.4342 116.431 32.5052 117.165 32.5525C117.898 32.5998 118.644 32.6353 119.401 32.659C120.158 32.6827 121.022 32.6945 121.993 32.6945ZM154.832 59V16.755H183.197V21.2635H160.477V54.4915H183.516V59H154.832ZM158.382 39.617V35.144H180.25V39.617H158.382ZM209.651 59.5325C205.391 59.5325 201.699 58.8225 198.575 57.4025C195.475 55.9825 193.073 53.6987 191.369 50.551C189.689 47.3797 188.848 43.1788 188.848 37.9485C188.848 32.9312 189.689 28.825 191.369 25.63C193.073 22.4113 195.511 20.0447 198.682 18.53C201.853 16.9917 205.675 16.2225 210.148 16.2225C211.852 16.2225 213.509 16.3172 215.118 16.5065C216.751 16.6958 218.313 16.9917 219.804 17.394V22.1865C218.266 21.7842 216.728 21.4883 215.189 21.299C213.651 21.1097 212.077 21.015 210.468 21.015C207.084 21.015 204.232 21.5712 201.912 22.6835C199.593 23.7722 197.842 25.559 196.658 28.044C195.475 30.5053 194.883 33.7832 194.883 37.8775C194.883 42.1138 195.475 45.4627 196.658 47.924C197.865 50.3853 199.605 52.1367 201.877 53.178C204.149 54.2193 206.894 54.74 210.113 54.74C211.746 54.74 213.332 54.6217 214.87 54.385C216.432 54.1247 218.077 53.7342 219.804 53.2135V58.006C218.337 58.4793 216.74 58.8462 215.012 59.1065C213.308 59.3905 211.521 59.5325 209.651 59.5325ZM242.683 59.5325C238.849 59.5325 235.5 58.7752 232.637 57.2605C229.797 55.7458 227.584 53.4028 225.998 50.2315C224.436 47.0365 223.655 42.9303 223.655 37.913C223.655 32.872 224.448 28.754 226.034 25.559C227.619 22.364 229.832 20.0092 232.672 18.4945C235.536 16.9798 238.873 16.2225 242.683 16.2225C246.493 16.2225 249.83 16.9798 252.694 18.4945C255.558 20.0092 257.771 22.364 259.333 25.559C260.918 28.754 261.711 32.872 261.711 37.913C261.711 42.9303 260.918 47.0365 259.333 50.2315C257.747 53.4028 255.522 55.7458 252.659 57.2605C249.795 58.7752 246.47 59.5325 242.683 59.5325ZM242.683 54.882C245.334 54.882 247.641 54.3377 249.606 53.249C251.594 52.1367 253.132 50.3498 254.221 47.8885C255.309 45.4272 255.854 42.1375 255.854 38.0195C255.854 33.8068 255.309 30.4462 254.221 27.9375C253.132 25.4288 251.594 23.6302 249.606 22.5415C247.641 21.4292 245.334 20.873 242.683 20.873C240.032 20.873 237.725 21.4173 235.761 22.506C233.796 23.5947 232.27 25.3815 231.181 27.8665C230.092 30.3278 229.548 33.6175 229.548 37.7355C229.548 41.9482 230.081 45.3088 231.146 47.8175C232.234 50.3262 233.761 52.1367 235.725 53.249C237.689 54.3377 240.009 54.882 242.683 54.882ZM280.186 59L264.46 16.755H270.459L285.085 56.6215H283.878L298.611 16.755H304.291L288.564 59H280.186ZM310.838 59V16.755H339.203V21.2635H316.483V54.4915H339.522V59H310.838ZM314.388 39.617V35.144H336.256V39.617H314.388ZM348.141 59V17.5005C349.916 17.1692 351.833 16.8852 353.892 16.6485C355.951 16.4118 358.128 16.2935 360.424 16.2935C366.435 16.2935 370.908 17.3348 373.843 19.4175C376.801 21.4765 378.28 24.6833 378.28 29.038C378.304 31.878 377.594 34.2565 376.15 36.1735C374.73 38.0668 372.636 39.4987 369.867 40.469C367.121 41.4393 363.749 41.9245 359.749 41.9245C358.708 41.9245 357.69 41.9127 356.696 41.889C355.726 41.8417 354.767 41.7707 353.821 41.676V59H348.141ZM375.227 59L359.749 39.191H366.104L381.795 59H375.227ZM359.749 37.6645C364.364 37.6645 367.701 36.9663 369.76 35.57C371.819 34.15 372.849 31.9963 372.849 29.109C372.849 26.056 371.89 23.8668 369.973 22.5415C368.08 21.2162 365.027 20.5535 360.814 20.5535C359.418 20.5535 358.164 20.6008 357.051 20.6955C355.963 20.7902 354.886 20.944 353.821 21.157V37.416C354.933 37.487 355.903 37.5462 356.732 37.5935C357.56 37.6408 358.566 37.6645 359.749 37.6645ZM396.963 59V38.126L398.206 42.2795L380.669 16.755H386.917L400.868 36.9545H399.022L412.796 16.755H418.654L401.472 42.2795L402.714 38.1615V59H396.963Z" fill="black"/>
<path d="M109.45 133V59H117.55V91.35H156.65V59H164.8V133H156.65V98.7H117.55V133H109.45ZM204.866 133.75C199.466 133.75 194.749 132.683 190.716 130.55C186.716 128.417 183.599 125.117 181.366 120.65C179.166 116.15 178.066 110.367 178.066 103.3C178.066 96.2 179.182 90.4 181.416 85.9C183.649 81.4 186.766 78.0833 190.766 75.95C194.799 73.8167 199.499 72.75 204.866 72.75C210.232 72.75 214.932 73.8167 218.966 75.95C222.999 78.0833 226.116 81.4 228.316 85.9C230.549 90.4 231.666 96.2 231.666 103.3C231.666 110.367 230.549 116.15 228.316 120.65C226.082 125.117 222.949 128.417 218.916 130.55C214.882 132.683 210.199 133.75 204.866 133.75ZM204.866 127.2C208.599 127.2 211.849 126.433 214.616 124.9C217.416 123.333 219.582 120.817 221.116 117.35C222.649 113.883 223.416 109.25 223.416 103.45C223.416 97.5167 222.649 92.7833 221.116 89.25C219.582 85.7167 217.416 83.1833 214.616 81.65C211.849 80.0833 208.599 79.3 204.866 79.3C201.132 79.3 197.882 80.0667 195.116 81.6C192.349 83.1333 190.199 85.65 188.666 89.15C187.132 92.6167 186.366 97.25 186.366 103.05C186.366 108.983 187.116 113.717 188.616 117.25C190.149 120.783 192.299 123.333 195.066 124.9C197.832 126.433 201.099 127.2 204.866 127.2ZM245.199 133V73.5H254.699L276.899 118.5H275.399L297.349 73.5H306.899V133H299.349V80.35H301.349L279.499 124.65H272.549L250.299 80.4H252.699V133H245.199ZM324.198 133V73.5H364.148V79.85H332.148V126.65H364.598V133H324.198ZM329.198 105.7V99.4H359.998V105.7H329.198ZM388.938 133.75C386.338 133.75 383.638 133.55 380.838 133.15C378.071 132.75 375.488 132.167 373.088 131.4V124.75C374.888 125.283 376.704 125.733 378.538 126.1C380.404 126.467 382.221 126.75 383.988 126.95C385.754 127.117 387.421 127.2 388.988 127.2C392.454 127.2 395.288 126.817 397.488 126.05C399.721 125.25 401.354 124.1 402.388 122.6C403.454 121.067 403.988 119.217 403.988 117.05C403.988 115.217 403.621 113.667 402.888 112.4C402.188 111.133 400.971 110.05 399.238 109.15C397.504 108.25 395.121 107.45 392.088 106.75L388.938 106.05C382.971 104.717 378.638 102.75 375.938 100.15C373.271 97.5167 371.938 93.9833 371.938 89.55C371.938 86.2167 372.771 83.3 374.438 80.8C376.138 78.2667 378.704 76.3 382.138 74.9C385.604 73.4667 389.988 72.75 395.288 72.75C397.688 72.75 400.088 72.9 402.488 73.2C404.921 73.5 407.121 73.9167 409.088 74.45V81.15C406.854 80.5167 404.588 80.05 402.288 79.75C400.021 79.4167 397.721 79.25 395.388 79.25C391.721 79.25 388.754 79.65 386.488 80.45C384.221 81.25 382.554 82.3833 381.488 83.85C380.454 85.3167 379.938 87.0833 379.938 89.15C379.938 91.9167 380.738 94.0667 382.338 95.6C383.971 97.1 387.021 98.3833 391.488 99.45L394.638 100.15C398.738 101.05 402.054 102.217 404.588 103.65C407.121 105.083 408.971 106.867 410.138 109C411.338 111.133 411.938 113.667 411.938 116.6C411.938 120.1 411.071 123.133 409.338 125.7C407.604 128.233 405.021 130.217 401.588 131.65C398.188 133.05 393.971 133.75 388.938 133.75Z" fill="black"/>
<path d="M2.23 133V131.2H10.42V8.79999H2.23V6.99999H30.76V8.79999H23.83V67.21H47.41V8.79999H40.57V6.99999H69.1V8.79999H60.64V131.2H69.1V133H40.57V131.2H47.41V69.01H23.83V131.2H30.76V133H2.23ZM88.0844 134.44C84.4244 134.44 81.6044 133.42 79.6244 131.38C77.7044 129.34 76.3844 126.67 75.6644 123.37C75.0044 120.01 74.6744 116.38 74.6744 112.48C74.6744 108.4 74.8244 104.29 75.1244 100.15C75.4844 95.95 75.6644 92.08 75.6644 88.54C75.6644 83.98 75.1844 80.26 74.2244 77.38C73.3244 74.5 71.7044 72.4 69.3644 71.08C67.0844 69.7 63.8444 69.01 59.6444 69.01H54.4244V131.2H62.6144V133H32.6444V131.2H41.0144V8.79999H32.6444V6.99999H65.2244C70.0844 6.99999 74.4044 8.01999 78.1844 10.06C81.9644 12.04 84.9044 15.19 87.0044 19.51C89.1644 23.77 90.2444 29.35 90.2444 36.25C90.2444 41.71 89.5244 46.39 88.0844 50.29C86.7044 54.19 84.8444 57.4 82.5044 59.92C80.2244 62.38 77.6744 64.27 74.8544 65.59C72.0344 66.91 69.2744 67.72 66.5744 68.02C72.9944 68.2 77.7644 69.49 80.8844 71.89C84.0644 74.29 86.1644 77.68 87.1844 82.06C88.2644 86.38 88.8044 91.66 88.8044 97.9C88.8044 100.6 88.7444 103.33 88.6244 106.09C88.5644 108.85 88.5344 111.55 88.5344 114.19C88.5344 116.53 88.6244 119.02 88.8044 121.66C89.0444 124.24 89.4644 126.43 90.0644 128.23C90.7244 130.03 91.6844 130.93 92.9444 130.93C93.4844 130.93 93.9644 130.72 94.3844 130.3C94.8644 129.82 95.1344 129.28 95.1944 128.68H96.9044C96.7844 129.94 96.2444 130.99 95.2844 131.83C94.3844 132.67 93.2744 133.3 91.9544 133.72C90.6344 134.2 89.3444 134.44 88.0844 134.44ZM54.4244 67.21H61.4444C65.1644 67.21 68.0744 65.86 70.1744 63.16C72.3344 60.46 73.8644 56.83 74.7644 52.27C75.6644 47.65 76.1144 42.43 76.1144 36.61C76.1144 31.21 75.7544 26.44 75.0344 22.3C74.3744 18.1 73.0544 14.8 71.0744 12.4C69.0944 9.99999 66.1544 8.79999 62.2544 8.79999H54.4244V67.21ZM58.48 133V131.2H66.67V8.79999H58.48V6.99999H87.01V8.79999H80.08V67.21H103.66V8.79999H96.82V6.99999H125.35V8.79999H116.89V131.2H125.35V133H96.82V131.2H103.66V69.01H80.08V131.2H87.01V133H58.48Z" fill="black"/>
</svg>
